PathFileType	4	(X/Y/Z)	C:/Users/opensim2020/Desktop/walking_exp_matlab/subject06_walking20_straight_04.trc	
DataRate	CameraRate	NumFrames	NumMarkers	Units	OrigDataRate	OrigDataStartFrame	OrigNumFrames	
100.00	100.00	4	43	mm	100.00	2252	126	
Frame#	Time	LFHD			RFHD			LBHD			RBHD			C7			T10			CLAV			STRN			RBAK			LSHO			LUPA			LELB			LFRM			LWRA			LWRB			LFIN			RSHO			RUPA			RELB			RFRM			RWRA			RWRB			RFIN			LASI			RASI			LPSI			RPSI			LTHI			LKNE			LTIB			LANK			LHEE			LTOE			RTHI			RKNE			RTIB			RANK			RHEE			RTOE			*39			*40			*41			*42			
		X1	Y1	Z1	X2	Y2	Z2	X3	Y3	Z3	X4	Y4	Z4	X5	Y5	Z5	X6	Y6	Z6	X7	Y7	Z7	X8	Y8	Z8	X9	Y9	Z9	X10	Y10	Z10	X11	Y11	Z11	X12	Y12	Z12	X13	Y13	Z13	X14	Y14	Z14	X15	Y15	Z15	X16	Y16	Z16	X17	Y17	Z17	X18	Y18	Z18	X19	Y19	Z19	X20	Y20	Z20	X21	Y21	Z21	X22	Y22	Z22	X23	Y23	Z23	X24	Y24	Z24	X25	Y25	Z25	X26	Y26	Z26	X27	Y27	Z27	X28	Y28	Z28	X29	Y29	Z29	X30	Y30	Z30	X31	Y31	Z31	X32	Y32	Z32	X33	Y33	Z33	X34	Y34	Z34	X35	Y35	Z35	X36	Y36	Z36	X37	Y37	Z37	X38	Y38	Z38	X39	Y39	Z39	X40	Y40	Z40	X41	Y41	Z41	X42	Y42	Z42	X43	Y43	Z43	

95	0.940	1491.68396	-218.68230	1641.99915	1361.70142	-203.60960	1620.46582	1510.89270	-84.66906	1592.62158	1383.26001	-71.19627	1576.71448	1459.42578	-73.42075	1426.96521	1450.82764	-44.76765	1095.96887	1455.57996	-185.26433	1350.92822	1467.28235	-228.39119	1176.63879	1387.10193	-0.67620	1253.54187	1618.12427	-130.43121	1386.30737	1704.29846	-149.84155	1192.76489	1727.22986	-167.29546	1084.11719	1741.80261	-276.28140	985.42346	1684.86902	-391.34326	945.62134	1728.28931	-358.89120	900.63531	1724.35742	-445.74826	881.38245	1294.94861	-133.81773	1377.83984	1215.64014	-48.39206	1194.18530	1202.39929	-23.31038	1074.88989	1180.19739	9.06152	959.91467	1198.75769	9.04692	805.13037	1165.35107	61.61312	832.73315	1158.59729	64.19656	747.66211	1572.23840	-216.10001	941.29156	1349.69104	-234.64696	945.88983	1525.82031	-59.66963	964.84991	1359.10925	-81.49141	961.19153	1623.42932	-109.91897	634.42377	1600.10974	-76.08530	471.38031	1594.77527	64.01017	250.37555	1549.16467	143.06950	96.64195	1507.44910	189.81020	97.49512	1538.94080	13.51490	38.54936	1282.08142	-271.28586	625.50500	1312.97144	-330.05945	516.68042	1315.03357	-365.36569	255.92000	1360.30066	-410.01956	77.13339	1408.62268	-379.80820	53.89979	1367.32190	-573.30554	39.47092	1440.53015	-113.25706	1678.75269									 
96	0.950	1489.96753	-233.79027	1641.08154	1360.05261	-218.61165	1619.35120	1509.42163	-99.79203	1591.67700	1381.85229	-86.22316	1575.46692	1458.20203	-88.29200	1425.89954	1450.12524	-60.80761	1094.60547	1454.19788	-200.47009	1349.96936	1465.95947	-244.05502	1175.80371	1386.33813	-16.00188	1252.11328	1616.78381	-145.47446	1385.25928	1702.79492	-164.87013	1191.98535	1726.20764	-182.85040	1083.44592	1740.20349	-294.04651	987.68829	1682.75562	-409.50894	951.81580	1725.40979	-378.80264	905.04962	1721.77271	-466.60352	890.23273	1293.58533	-148.77885	1376.60596	1214.29675	-63.04810	1193.15747	1200.99023	-37.48383	1073.95276	1178.70776	-4.59066	959.21014	1197.05298	-3.58432	804.41284	1163.78345	48.74936	832.29608	1156.92688	51.79689	747.33179	1571.06213	-232.45894	940.04541	1348.72827	-251.77151	946.01465	1525.05042	-76.28606	963.50037	1358.46521	-98.15715	960.84442	1622.82837	-125.57894	633.23419	1600.03882	-91.13555	470.24811	1595.15442	55.59213	253.51350	1550.49011	139.65236	102.30926	1508.94836	186.28233	104.93237	1538.95630	12.81757	38.49506	1282.05518	-290.04022	626.25421	1313.44897	-347.42349	517.16382	1315.80627	-381.30951	254.98424	1361.45789	-425.00381	76.52699	1409.84265	-394.65942	52.85816	1369.17969	-588.57288	38.70746	1438.89270	-128.25279	1677.66260									 
97	0.960	1488.24683	-248.85786	1640.47607	1358.42676	-233.59702	1618.55225	1507.85181	-114.82181	1591.15649	1380.33423	-101.18491	1574.82019	1456.80603	-103.22421	1425.04382	1449.32092	-76.96957	1093.49243	1452.76074	-215.48282	1349.41516	1464.62170	-259.74539	1175.42334	1385.48083	-31.35791	1250.83508	1615.38037	-160.31699	1384.67273	1701.40710	-179.76064	1191.67371	1724.84155	-198.22684	1083.15381	1738.26941	-310.85150	989.54956	1680.84424	-426.68329	956.86725	1722.53796	-397.40894	908.26593	1719.36279	-485.75818	897.43152	1292.18140	-163.57104	1375.81116	1212.93079	-77.72580	1192.45032	1199.60339	-52.23428	1073.35364	1177.18408	-18.82828	958.68658	1195.38892	-17.32505	803.91565	1162.10120	34.75643	831.93658	1155.11987	37.98605	747.01758	1569.84192	-249.01425	939.22614	1348.02673	-268.91165	946.30640	1524.17346	-93.18620	962.53601	1357.63208	-115.10194	960.83783	1622.10681	-142.10435	632.10614	1599.91211	-107.80539	469.03625	1595.28308	46.03127	257.21432	1551.61255	135.29114	108.89877	1510.09326	181.63400	113.67452	1538.87781	12.06757	38.41711	1282.14673	-308.40118	626.99402	1313.45056	-364.74323	517.46844	1316.61194	-395.81747	253.98674	1362.92566	-437.09930	75.21548	1411.60608	-406.50644	51.13375	1370.55176	-601.06830	38.16222	1437.23523	-143.36426	1677.05457									 
98	0.970	1486.58862	-263.88440	1640.12097	1356.77222	-248.58548	1618.11829	1506.36609	-129.79739	1591.09436	1378.79297	-116.11266	1574.64624	1455.21582	-117.83924	1424.46143	1448.36194	-93.14927	1092.74841	1451.32324	-230.48395	1349.33057	1463.24084	-275.51968	1175.58093	1384.46704	-46.79982	1249.69519	1613.85217	-174.84952	1384.47058	1700.11487	-194.71509	1191.74609	1723.16357	-213.51126	1083.18188	1736.25195	-326.89670	990.89923	1679.08240	-442.94855	960.72607	1719.82983	-414.89819	910.62573	1717.24243	-503.46902	902.99945	1290.73438	-178.18762	1375.40051	1211.49292	-92.56344	1192.09180	1198.03979	-67.19096	1072.99414	1175.61560	-33.74677	958.30225	1193.69678	-32.23647	803.65021	1160.39099	19.85127	831.58331	1153.21741	23.11444	746.78699	1568.51819	-265.74753	938.80615	1347.26514	-286.26563	946.73993	1523.07959	-110.15396	962.00763	1356.47278	-132.52071	961.16077	1621.31702	-159.42503	630.98505	1599.76208	-126.31530	467.65353	1595.12341	35.26392	261.52411	1552.49902	129.72285	116.61991	1510.97217	175.32988	123.75864	1538.75403	11.23899	38.33290	1282.09106	-326.31735	627.54181	1313.19519	-381.32382	517.35724	1317.08350	-409.15549	252.93266	1364.38159	-446.87073	73.51092	1412.20581	-416.29227	49.51386	1371.48474	-611.20837	37.80138	1435.53418	-158.50999	1676.86914									 
